<mxfile host="app.diagrams.net" modified="2022-05-31T01:50:23.890Z" agent="5.0 (Windows NT 10.0; Win64; x64) AppleWebKit/537.36 (KHTML, like Gecko) Chrome/101.0.4951.67 Safari/537.36" etag="z3buCVzwz4CErAYFGDO3" version="17.4.6" type="github">
  <diagram id="p5NBLqzSTFIIDADKYXvf" name="Page-1">
    <mxGraphModel dx="1421" dy="823" grid="1" gridSize="10" guides="1" tooltips="1" connect="1" arrows="1" fold="1" page="1" pageScale="1" pageWidth="827" pageHeight="1169" math="0" shadow="0">
      <root>
        <mxCell id="0" />
        <mxCell id="1" parent="0" />
        <mxCell id="-CZ4SJs_n75rVengpm8A-1" value="New Site" style="ellipse;whiteSpace=wrap;html=1;" vertex="1" parent="1">
          <mxGeometry x="150" y="350" width="140" height="70" as="geometry" />
        </mxCell>
        <mxCell id="-CZ4SJs_n75rVengpm8A-2" value="Actor" style="shape=umlActor;verticalLabelPosition=bottom;verticalAlign=top;html=1;" vertex="1" parent="1">
          <mxGeometry x="30" y="450" width="70" height="100" as="geometry" />
        </mxCell>
        <mxCell id="-CZ4SJs_n75rVengpm8A-3" value="add Building" style="ellipse;whiteSpace=wrap;html=1;" vertex="1" parent="1">
          <mxGeometry x="380" y="440" width="140" height="70" as="geometry" />
        </mxCell>
        <mxCell id="-CZ4SJs_n75rVengpm8A-4" value="Edit Site" style="ellipse;whiteSpace=wrap;html=1;" vertex="1" parent="1">
          <mxGeometry x="160" y="530" width="140" height="70" as="geometry" />
        </mxCell>
        <mxCell id="-CZ4SJs_n75rVengpm8A-6" value="Batch create Floors" style="ellipse;whiteSpace=wrap;html=1;" vertex="1" parent="1">
          <mxGeometry x="640" y="365" width="140" height="70" as="geometry" />
        </mxCell>
        <mxCell id="-CZ4SJs_n75rVengpm8A-8" value="Include" style="endArrow=open;endSize=12;dashed=1;html=1;rounded=0;entryX=0.086;entryY=0.186;entryDx=0;entryDy=0;entryPerimeter=0;" edge="1" parent="1" source="-CZ4SJs_n75rVengpm8A-1" target="-CZ4SJs_n75rVengpm8A-3">
          <mxGeometry width="160" relative="1" as="geometry">
            <mxPoint x="290" y="385" as="sourcePoint" />
            <mxPoint x="450" y="385" as="targetPoint" />
          </mxGeometry>
        </mxCell>
        <mxCell id="-CZ4SJs_n75rVengpm8A-9" value="创建第一个建筑" style="text;html=1;resizable=0;autosize=1;align=center;verticalAlign=middle;points=[];fillColor=none;strokeColor=none;rounded=0;" vertex="1" parent="1">
          <mxGeometry x="300" y="400" width="100" height="20" as="geometry" />
        </mxCell>
        <mxCell id="-CZ4SJs_n75rVengpm8A-10" value="Include" style="endArrow=open;endSize=12;dashed=1;html=1;rounded=0;entryX=0;entryY=0.5;entryDx=0;entryDy=0;exitX=1;exitY=0.5;exitDx=0;exitDy=0;" edge="1" parent="1" source="-CZ4SJs_n75rVengpm8A-3" target="-CZ4SJs_n75rVengpm8A-6">
          <mxGeometry width="160" relative="1" as="geometry">
            <mxPoint x="285.00393571937116" y="416.64813534336713" as="sourcePoint" />
            <mxPoint x="402.03999999999996" y="463.02" as="targetPoint" />
          </mxGeometry>
        </mxCell>
        <mxCell id="-CZ4SJs_n75rVengpm8A-11" value="Edit Building" style="ellipse;whiteSpace=wrap;html=1;" vertex="1" parent="1">
          <mxGeometry x="380" y="550" width="140" height="70" as="geometry" />
        </mxCell>
        <mxCell id="-CZ4SJs_n75rVengpm8A-12" value="Include" style="endArrow=open;endSize=12;dashed=1;html=1;rounded=0;entryX=0;entryY=0.714;entryDx=0;entryDy=0;entryPerimeter=0;exitX=0.993;exitY=0.366;exitDx=0;exitDy=0;exitPerimeter=0;" edge="1" parent="1" source="-CZ4SJs_n75rVengpm8A-4" target="-CZ4SJs_n75rVengpm8A-3">
          <mxGeometry width="160" relative="1" as="geometry">
            <mxPoint x="285.00393571937116" y="416.64813534336713" as="sourcePoint" />
            <mxPoint x="402.03999999999996" y="463.02" as="targetPoint" />
          </mxGeometry>
        </mxCell>
        <mxCell id="-CZ4SJs_n75rVengpm8A-13" value="Include" style="endArrow=open;endSize=12;dashed=1;html=1;rounded=0;entryX=0;entryY=0.429;entryDx=0;entryDy=0;entryPerimeter=0;exitX=1;exitY=0.5;exitDx=0;exitDy=0;" edge="1" parent="1" source="-CZ4SJs_n75rVengpm8A-4" target="-CZ4SJs_n75rVengpm8A-11">
          <mxGeometry width="160" relative="1" as="geometry">
            <mxPoint x="309.02" y="565.6199999999999" as="sourcePoint" />
            <mxPoint x="390" y="499.98" as="targetPoint" />
          </mxGeometry>
        </mxCell>
        <mxCell id="-CZ4SJs_n75rVengpm8A-14" value="add Floor" style="ellipse;whiteSpace=wrap;html=1;" vertex="1" parent="1">
          <mxGeometry x="640" y="480" width="140" height="70" as="geometry" />
        </mxCell>
        <mxCell id="-CZ4SJs_n75rVengpm8A-15" value="Include" style="endArrow=open;endSize=12;dashed=1;html=1;rounded=0;entryX=-0.002;entryY=0.371;entryDx=0;entryDy=0;entryPerimeter=0;" edge="1" parent="1" source="-CZ4SJs_n75rVengpm8A-11" target="-CZ4SJs_n75rVengpm8A-14">
          <mxGeometry width="160" relative="1" as="geometry">
            <mxPoint x="530.0000000000034" y="485" as="sourcePoint" />
            <mxPoint x="630" y="500" as="targetPoint" />
          </mxGeometry>
        </mxCell>
        <mxCell id="-CZ4SJs_n75rVengpm8A-17" value="在顶层添加 一层" style="text;html=1;resizable=0;autosize=1;align=center;verticalAlign=middle;points=[];fillColor=none;strokeColor=none;rounded=0;" vertex="1" parent="1">
          <mxGeometry x="530" y="540" width="100" height="20" as="geometry" />
        </mxCell>
        <mxCell id="-CZ4SJs_n75rVengpm8A-18" value="Include" style="endArrow=open;endSize=12;dashed=1;html=1;rounded=0;exitX=0.968;exitY=0.74;exitDx=0;exitDy=0;exitPerimeter=0;entryX=0.308;entryY=0.972;entryDx=0;entryDy=0;entryPerimeter=0;" edge="1" parent="1" source="-CZ4SJs_n75rVengpm8A-11" target="-CZ4SJs_n75rVengpm8A-14">
          <mxGeometry width="160" relative="1" as="geometry">
            <mxPoint x="510.939607671721" y="570.9939779937865" as="sourcePoint" />
            <mxPoint x="640" y="510" as="targetPoint" />
          </mxGeometry>
        </mxCell>
        <mxCell id="-CZ4SJs_n75rVengpm8A-19" value="在最底层添加 一层" style="text;html=1;resizable=0;autosize=1;align=center;verticalAlign=middle;points=[];fillColor=none;strokeColor=none;rounded=0;" vertex="1" parent="1">
          <mxGeometry x="565" y="580" width="110" height="20" as="geometry" />
        </mxCell>
        <mxCell id="-CZ4SJs_n75rVengpm8A-20" value="remove Floor" style="ellipse;whiteSpace=wrap;html=1;" vertex="1" parent="1">
          <mxGeometry x="650" y="620" width="140" height="70" as="geometry" />
        </mxCell>
        <mxCell id="-CZ4SJs_n75rVengpm8A-21" value="Include" style="endArrow=open;endSize=12;dashed=1;html=1;rounded=0;entryX=0;entryY=0.429;entryDx=0;entryDy=0;entryPerimeter=0;exitX=0.742;exitY=0.977;exitDx=0;exitDy=0;exitPerimeter=0;" edge="1" parent="1" source="-CZ4SJs_n75rVengpm8A-11" target="-CZ4SJs_n75rVengpm8A-20">
          <mxGeometry width="160" relative="1" as="geometry">
            <mxPoint x="513.8877537828239" y="572.6610766136655" as="sourcePoint" />
            <mxPoint x="649.7199999999998" y="515.97" as="targetPoint" />
          </mxGeometry>
        </mxCell>
        <mxCell id="-CZ4SJs_n75rVengpm8A-22" value="Use" style="endArrow=open;endSize=12;dashed=1;html=1;rounded=0;entryX=0.158;entryY=0.928;entryDx=0;entryDy=0;entryPerimeter=0;" edge="1" parent="1" target="-CZ4SJs_n75rVengpm8A-1">
          <mxGeometry width="160" relative="1" as="geometry">
            <mxPoint x="90" y="470" as="sourcePoint" />
            <mxPoint x="250" y="470" as="targetPoint" />
          </mxGeometry>
        </mxCell>
        <mxCell id="-CZ4SJs_n75rVengpm8A-23" value="Use" style="endArrow=open;endSize=12;dashed=1;html=1;rounded=0;entryX=0.008;entryY=0.307;entryDx=0;entryDy=0;entryPerimeter=0;" edge="1" parent="1" target="-CZ4SJs_n75rVengpm8A-4">
          <mxGeometry width="160" relative="1" as="geometry">
            <mxPoint x="100" y="480" as="sourcePoint" />
            <mxPoint x="182.1199999999999" y="424.96000000000004" as="targetPoint" />
          </mxGeometry>
        </mxCell>
        <mxCell id="-CZ4SJs_n75rVengpm8A-24" value="启用/停用 Site" style="ellipse;whiteSpace=wrap;html=1;" vertex="1" parent="1">
          <mxGeometry x="160" y="640" width="140" height="70" as="geometry" />
        </mxCell>
        <mxCell id="-CZ4SJs_n75rVengpm8A-25" value="Use" style="endArrow=open;endSize=12;dashed=1;html=1;rounded=0;exitX=1;exitY=0.3333333333333333;exitDx=0;exitDy=0;exitPerimeter=0;" edge="1" parent="1" source="-CZ4SJs_n75rVengpm8A-2">
          <mxGeometry width="160" relative="1" as="geometry">
            <mxPoint x="110" y="490" as="sourcePoint" />
            <mxPoint x="150" y="660" as="targetPoint" />
          </mxGeometry>
        </mxCell>
      </root>
    </mxGraphModel>
  </diagram>
</mxfile>
